<svg width="197" height="155" viewBox="0 0 197 155" fill="none" xmlns="http://www.w3.org/2000/svg">
<circle cx="85.7128" cy="86.6702" r="48.1501" fill="#DBE3FF"/>
<path d="M50.532 120.004C53.358 112.827 58.2706 106.662 64.6353 102.306C71.0001 97.9493 78.5248 95.6008 86.2377 95.5636C93.8303 95.5429 101.241 97.8843 107.444 102.263C113.646 106.642 118.333 112.842 120.855 120.004C120.855 120.004 112.389 135.087 86.2377 134.84C79.5363 135.373 72.8042 134.306 66.5962 131.726C60.3883 129.147 54.8823 125.129 50.532 120.004Z" fill="#4200D8"/>
<path d="M85.7024 55.3677C89.8926 55.3677 93.9887 56.6102 97.4727 58.9382C100.957 61.2661 103.672 64.5749 105.276 68.4461C106.879 72.3174 107.299 76.5772 106.481 80.6869C105.664 84.7966 103.646 88.5716 100.683 91.5345C97.7203 94.4974 93.9453 96.5152 89.8356 97.3327C85.7259 98.1501 81.4661 97.7306 77.5949 96.1271C73.7236 94.5235 70.4148 91.808 68.0869 88.324C65.7589 84.84 64.5164 80.7439 64.5164 76.5537C64.5164 73.7715 65.0644 71.0166 66.1291 68.4461C67.1938 65.8757 68.7543 63.5402 70.7216 61.5729C72.6889 59.6056 75.0244 58.0451 77.5949 56.9804C80.1653 55.9157 82.9202 55.3677 85.7024 55.3677Z" fill="#4200D8"/>
<path d="M133.7 29.8782C135.354 29.2306 136.17 27.3645 135.523 25.71C134.875 24.0556 133.009 23.2393 131.355 23.8868C129.7 24.5344 128.884 26.4005 129.532 28.055C130.179 29.7095 132.045 30.5257 133.7 29.8782Z" stroke="#DBE3FF" stroke-width="3" stroke-linecap="round" stroke-linejoin="round"/>
<path d="M153.123 13.8554C154.777 13.2078 155.594 11.3417 154.946 9.68721C154.299 8.03275 152.432 7.21648 150.778 7.86402C149.123 8.51156 148.307 10.3777 148.955 12.0322C149.602 13.6866 151.468 14.5029 153.123 13.8554Z" stroke="#DBE3FF" stroke-width="3" stroke-linecap="round" stroke-linejoin="round"/>
<path d="M170.464 31.6823C172.118 31.0347 172.935 29.1686 172.287 27.5141C171.64 25.8597 169.773 25.0434 168.119 25.6909C166.464 26.3385 165.648 28.2046 166.296 29.8591C166.943 31.5135 168.809 32.3298 170.464 31.6823Z" stroke="#DBE3FF" stroke-width="3" stroke-linecap="round" stroke-linejoin="round"/>
<path d="M122.555 24.5729C122.889 24.4423 123.054 24.0659 122.923 23.7323C122.793 23.3986 122.416 23.2339 122.082 23.3645C121.749 23.4951 121.584 23.8715 121.715 24.2052C121.845 24.5389 122.222 24.7035 122.555 24.5729Z" fill="#050034" stroke="#DBE3FF" stroke-width="6" stroke-linecap="round" stroke-linejoin="round"/>
<path d="M174.702 11.9989C174.718 12.0352 174.723 12.0754 174.716 12.1145C174.71 12.1536 174.691 12.1899 174.664 12.2187C174.637 12.2475 174.601 12.2675 174.563 12.2763C174.524 12.285 174.484 12.2821 174.447 12.2679C174.41 12.2537 174.377 12.2288 174.355 12.1965C174.332 12.1641 174.319 12.1256 174.318 12.0859C174.317 12.0462 174.327 12.0071 174.348 11.9735C174.37 11.94 174.4 11.9134 174.436 11.8972C174.461 11.8864 174.487 11.8805 174.513 11.8798C174.539 11.879 174.566 11.8835 174.59 11.893C174.615 11.9024 174.637 11.9167 174.657 11.9348C174.676 11.953 174.691 11.9748 174.702 11.9989Z" stroke="#1A1818" stroke-width="6" stroke-linecap="round" stroke-linejoin="round"/>
<path d="M171.124 48.2645C171.227 48.2241 171.278 48.1077 171.238 48.0044C171.197 47.9012 171.081 47.8502 170.977 47.8906C170.874 47.931 170.823 48.0475 170.864 48.1508C170.904 48.254 171.021 48.305 171.124 48.2645Z" stroke="#1A1818" stroke-width="6" stroke-linecap="round" stroke-linejoin="round"/>
<path d="M180.746 49.6805C180.85 49.6401 180.901 49.5236 180.86 49.4204C180.82 49.3171 180.703 49.2662 180.6 49.3066C180.497 49.347 180.446 49.4635 180.486 49.5667C180.527 49.67 180.643 49.7209 180.746 49.6805Z" stroke="#1A1818" stroke-width="6" stroke-linecap="round" stroke-linejoin="round"/>
<path d="M150.022 24.1374C150.125 24.097 150.176 23.9805 150.136 23.8773C150.095 23.774 149.979 23.7231 149.875 23.7635C149.772 23.8039 149.721 23.9204 149.762 24.0236C149.802 24.1269 149.919 24.1778 150.022 24.1374Z" stroke="#1A1818" stroke-width="6" stroke-linecap="round" stroke-linejoin="round"/>
<path d="M117.077 30.9866L118.982 35.8547" stroke="#DBE3FF" stroke-width="2.5" stroke-linecap="round" stroke-linejoin="round"/>
<path d="M115.481 34.6337L120.724 32.5818" stroke="#DBE3FF" stroke-width="2.5" stroke-linecap="round" stroke-linejoin="round"/>
<path d="M151.04 32.8073L152.946 37.6754" stroke="#DBE3FF" stroke-width="4" stroke-linecap="round" stroke-linejoin="round"/>
<path d="M149.445 36.4543L154.688 34.4024" stroke="#DBE3FF" stroke-width="4" stroke-linecap="round" stroke-linejoin="round"/>
<path d="M176.653 62.9431L174.748 58.075" stroke="#DBE3FF" stroke-width="2.5" stroke-linecap="round" stroke-linejoin="round"/>
<path d="M173.153 61.722L178.396 59.67" stroke="#DBE3FF" stroke-width="2.5" stroke-linecap="round" stroke-linejoin="round"/>
<path d="M156.862 26.3142C159.591 21.1223 163.872 16.911 169.108 14.2673" stroke="#DBE3FF" stroke-width="3" stroke-linecap="round" stroke-linejoin="round"/>
<path d="M124.212 67.5634L123.964 91.5335C123.959 92.0366 124.101 92.5303 124.372 92.954C124.643 93.3777 125.033 93.7129 125.492 93.9185C125.951 94.124 126.46 94.191 126.957 94.1111C127.454 94.0313 127.916 93.8081 128.288 93.469L137.245 85.3018C136.799 81.4683 135.362 77.8171 133.077 74.707C130.792 71.5969 127.736 69.1351 124.212 67.5637" fill="#887DF0"/>
<path d="M124.393 50.2084L124.213 67.5633C127.738 69.135 130.793 71.597 133.078 74.7072C135.363 77.8173 136.799 81.4686 137.245 85.302L143.202 79.8705C141.669 62.8164 130.343 53.8055 124.392 50.2087" fill="#DBE3FF"/>
<path d="M135.693 41.3299L125.802 37.0034C125.663 36.9427 125.512 36.9174 125.361 36.9295C125.211 36.9417 125.065 36.991 124.939 37.0731C124.812 37.1552 124.707 37.2675 124.634 37.3999C124.561 37.5323 124.523 37.6807 124.521 37.8318L124.393 50.2084C130.344 53.8045 141.67 62.8161 143.203 79.8702L151.053 72.7132C149.579 57.6869 141.707 47.2454 135.69 41.331" fill="#DBE3FF"/>
<path opacity="0.718" d="M135.693 41.3299L125.802 37.0034C125.663 36.9427 125.512 36.9174 125.361 36.9295C125.211 36.9417 125.065 36.991 124.939 37.0731C124.812 37.1552 124.707 37.2675 124.634 37.3999C124.561 37.5323 124.523 37.6807 124.521 37.8318L124.393 50.2084C130.344 53.8045 141.67 62.8161 143.203 79.8702L151.053 72.7132C149.579 57.6869 141.707 47.2454 135.69 41.331" fill="#4200D8"/>
<path d="M156.581 67.6728L156.141 67.7275C156.141 67.7275 160.396 61.5319 158.276 51.2074L135.694 41.3297C141.707 47.2455 149.58 57.6867 151.056 72.7119L156.581 67.6728Z" fill="#DBE3FF"/>
<path opacity="0.506" d="M156.587 67.6888L156.147 67.7435C156.147 67.7435 160.403 61.5479 158.282 51.2234L135.7 41.3456C141.713 47.2615 149.586 57.7027 151.062 72.7279L156.587 67.6888Z" fill="#4200D8"/>
<path d="M156.14 67.7283L156.58 67.6735L168.292 56.9945C168.405 56.8918 168.49 56.7626 168.54 56.6186C168.59 56.4747 168.603 56.3206 168.578 56.1703C168.553 56.0199 168.491 55.8782 168.398 55.7579C168.305 55.6376 168.183 55.5425 168.043 55.4813L158.275 51.2082C160.396 61.5327 156.141 67.729 156.141 67.729" fill="#DBE3FF"/>
<path d="M124.679 37.0216C123.304 40.1662 132.061 47.0349 144.24 52.3614C156.419 57.6879 167.407 59.4581 168.782 56.3102C170.157 53.1624 161.399 46.2972 149.223 40.9723C137.046 35.6474 126.052 33.878 124.679 37.0216Z" fill="#4200D8"/>
<path d="M155.623 48.1839C159.947 44.221 165.4 41.7059 171.222 40.9889" stroke="#DBE3FF" stroke-width="3" stroke-linecap="round" stroke-linejoin="round"/>
<path d="M138.421 12.7004C138.421 12.7004 146.596 28.0697 139.384 43.8467" stroke="#DBE3FF" stroke-width="3" stroke-linecap="round" stroke-linejoin="round"/>
<path d="M171.174 48.9428C171.507 48.8122 171.672 48.4359 171.542 48.1022C171.411 47.7685 171.035 47.6039 170.701 47.7345C170.367 47.8651 170.203 48.2415 170.333 48.5751C170.464 48.9088 170.84 49.0734 171.174 48.9428Z" fill="#050034" stroke="#DBE3FF" stroke-width="6" stroke-linecap="round" stroke-linejoin="round"/>
<path d="M181.401 50.1222C181.734 49.9916 181.899 49.6153 181.768 49.2816C181.638 48.9479 181.261 48.7833 180.928 48.9139C180.594 49.0445 180.429 49.4208 180.56 49.7545C180.691 50.0882 181.067 50.2528 181.401 50.1222Z" fill="#050034" stroke="#DBE3FF" stroke-width="6" stroke-linecap="round" stroke-linejoin="round"/>
<path d="M174.958 12.989C175.435 12.8023 175.671 12.264 175.484 11.7868C175.297 11.3096 174.759 11.0742 174.282 11.2609C173.804 11.4477 173.569 11.986 173.756 12.4632C173.942 12.9404 174.481 13.1758 174.958 12.989Z" fill="#050034" stroke="#DBE3FF" stroke-width="6" stroke-linecap="round" stroke-linejoin="round"/>
<path d="M15.7256 122.544C15.7256 120.767 14.2854 119.327 12.5087 119.327C10.732 119.327 9.29175 120.767 9.29175 122.544C9.29175 124.321 10.732 125.761 12.5087 125.761C14.2854 125.761 15.7256 124.321 15.7256 122.544Z" stroke="#DBE3FF" stroke-width="2.5" stroke-linecap="round" stroke-linejoin="round"/>
<path d="M7.88409 98.6169C7.88409 96.8402 6.44381 95.4 4.66714 95.4C2.89047 95.4 1.4502 96.8402 1.4502 98.6169C1.4502 100.394 2.89047 101.834 4.66714 101.834C6.44381 101.834 7.88409 100.394 7.88409 98.6169Z" stroke="#DBE3FF" stroke-width="2.5" stroke-linecap="round" stroke-linejoin="round"/>
<path d="M30.805 88.9661C30.805 87.1894 29.3647 85.7492 27.588 85.7492C25.8114 85.7492 24.3711 87.1894 24.3711 88.9661C24.3711 90.7428 25.8114 92.183 27.588 92.183C29.3647 92.183 30.805 90.7428 30.805 88.9661Z" stroke="#DBE3FF" stroke-width="2.5" stroke-linecap="round" stroke-linejoin="round"/>
<path d="M6.72341 130.988C6.72341 130.63 6.43293 130.339 6.0746 130.339C5.71627 130.339 5.42578 130.63 5.42578 130.988C5.42578 131.346 5.71627 131.637 6.0746 131.637C6.43293 131.637 6.72341 131.346 6.72341 130.988Z" fill="#050034" stroke="#DBE3FF" stroke-width="6" stroke-linecap="round" stroke-linejoin="round"/>
<path d="M14.0201 77.8456C14.0597 77.8438 14.099 77.8538 14.133 77.8743C14.1669 77.8948 14.1941 77.9249 14.2109 77.9609C14.2278 77.9968 14.2336 78.0369 14.2276 78.0762C14.2217 78.1154 14.2043 78.152 14.1775 78.1814C14.1508 78.2107 14.116 78.2314 14.0774 78.241C14.0389 78.2505 13.9984 78.2485 13.9611 78.235C13.9237 78.2215 13.8912 78.1973 13.8676 78.1654C13.8441 78.1335 13.8305 78.0953 13.8286 78.0556C13.8273 78.0293 13.8313 78.0029 13.8403 77.9781C13.8492 77.9532 13.863 77.9304 13.8808 77.9109C13.8985 77.8914 13.92 77.8755 13.9439 77.8643C13.9678 77.8531 13.9937 77.8467 14.0201 77.8456Z" stroke="#1A1818" stroke-width="6" stroke-linecap="round" stroke-linejoin="round"/>
<path d="M46.4872 94.3955C46.4872 94.2846 46.3973 94.1947 46.2865 94.1947C46.1756 94.1947 46.0857 94.2846 46.0857 94.3955C46.0857 94.5064 46.1756 94.5963 46.2865 94.5963C46.3973 94.5963 46.4872 94.5064 46.4872 94.3955Z" stroke="#1A1818" stroke-width="6" stroke-linecap="round" stroke-linejoin="round"/>
<path d="M51.3129 85.9507C51.3129 85.8398 51.223 85.7499 51.1121 85.7499C51.0013 85.7499 50.9114 85.8398 50.9114 85.9507C50.9114 86.0615 51.0013 86.1514 51.1121 86.1514C51.223 86.1514 51.3129 86.0615 51.3129 85.9507Z" stroke="#1A1818" stroke-width="6" stroke-linecap="round" stroke-linejoin="round"/>
<path d="M16.3285 105.252C16.3285 105.141 16.2387 105.052 16.1278 105.052C16.0169 105.052 15.927 105.141 15.927 105.252C15.927 105.363 16.0169 105.453 16.1278 105.453C16.2387 105.453 16.3285 105.363 16.3285 105.252Z" stroke="#1A1818" stroke-width="6" stroke-linecap="round" stroke-linejoin="round"/>
<path d="M10.6992 138.427L15.9269 138.427" stroke="#DBE3FF" stroke-width="4" stroke-linecap="round" stroke-linejoin="round"/>
<path d="M13.5139 141.243L13.5139 135.613" stroke="#DBE3FF" stroke-width="4" stroke-linecap="round" stroke-linejoin="round"/>
<path d="M24.7732 107.464L30.0009 107.464" stroke="#DBE3FF" stroke-width="2.5" stroke-linecap="round" stroke-linejoin="round"/>
<path d="M27.5881 110.279L27.5881 104.649" stroke="#DBE3FF" stroke-width="2.5" stroke-linecap="round" stroke-linejoin="round"/>
<path d="M62.1713 94.5961L56.9436 94.5961" stroke="#DBE3FF" stroke-width="4" stroke-linecap="round" stroke-linejoin="round"/>
<path d="M59.7583 97.4107L59.7583 91.7807" stroke="#DBE3FF" stroke-width="4" stroke-linecap="round" stroke-linejoin="round"/>
<path d="M20.8486 99.676C17.0086 95.242 14.6473 89.7206 14.0937 83.8812" stroke="#DBE3FF" stroke-width="2.5" stroke-linecap="round" stroke-linejoin="round"/>
<path d="M47.3606 145.114L69.5916 154.081C70.0582 154.269 70.5696 154.317 71.063 154.219C71.5564 154.121 72.0104 153.881 72.3692 153.528C72.728 153.175 72.976 152.725 73.0827 152.234C73.1894 151.742 73.1501 151.23 72.9698 150.76L68.6289 139.443C64.8964 138.461 60.9728 138.468 57.2437 139.462C53.5147 140.457 50.1087 142.405 47.3606 145.115" fill="#887DF0"/>
<path d="M31.2654 138.62L47.361 145.113C50.1093 142.404 53.5153 140.456 57.2443 139.462C60.9733 138.468 64.8969 138.461 68.6292 139.443L65.7425 131.916C49.3028 127.128 36.7838 134.39 31.2654 138.621" fill="#DBE3FF"/>
<path d="M27.1161 124.862L19.4822 132.496C19.3753 132.602 19.2965 132.734 19.2529 132.879C19.2094 133.024 19.2023 133.177 19.2325 133.325C19.2627 133.473 19.3291 133.611 19.4259 133.727C19.5226 133.843 19.6467 133.934 19.7869 133.99L31.2655 138.62C36.7832 134.389 49.3029 127.127 65.7427 131.915L61.9389 121.997C47.4092 117.892 34.8166 121.418 27.1161 124.865" fill="#DBE3FF"/>
<path opacity="0.718" d="M27.1161 124.862L19.4822 132.496C19.3753 132.602 19.2965 132.734 19.2529 132.879C19.2094 133.024 19.2023 133.177 19.2325 133.325C19.2627 133.473 19.3291 133.611 19.4259 133.727C19.5226 133.843 19.6467 133.934 19.7869 133.99L31.2655 138.62C36.7832 134.389 49.3029 127.127 65.7427 131.915L61.9389 121.997C47.4092 117.892 34.8166 121.418 27.1161 124.865" fill="#4200D8"/>
<path d="M59.2598 115.012L59.1505 115.441C59.1505 115.441 54.9321 109.221 44.5448 107.432L27.116 124.861C34.8165 121.418 47.4091 117.892 61.9388 121.993L59.2598 115.012Z" fill="#DBE3FF"/>
<path opacity="0.506" d="M59.2769 115.012L59.1676 115.441C59.1676 115.441 54.9492 109.221 44.5619 107.432L27.1331 124.861C34.8336 121.418 47.4262 117.892 61.9559 121.993L59.2769 115.012Z" fill="#4200D8"/>
<path d="M59.1511 115.442L59.2604 115.012L53.5846 100.214C53.53 100.071 53.4407 99.9452 53.3249 99.8462C53.209 99.7473 53.0703 99.6788 52.9213 99.6471C52.7723 99.6154 52.6177 99.6214 52.4716 99.6645C52.3255 99.7077 52.1925 99.7867 52.0847 99.8943L44.5454 107.433C54.9327 109.221 59.1519 115.442 59.1519 115.442" fill="#DBE3FF"/>
<path d="M19.0899 133.548C21.5169 135.975 31.105 130.323 40.5039 120.923C49.9028 111.523 55.5561 101.936 53.1259 99.5084C50.6958 97.0806 41.1108 102.734 31.7143 112.132C22.3177 121.53 16.6628 131.124 19.0899 133.548Z" fill="#050034"/>
<path d="M40.7626 108.8C38.6485 103.329 38.2938 97.3346 39.7479 91.6522" stroke="#DBE3FF" stroke-width="4" stroke-linecap="round" stroke-linejoin="round"/>
<path d="M1.45019 111.886C1.45019 111.886 18.7419 109.876 30.805 122.342" stroke="#DBE3FF" stroke-width="2.5" stroke-linecap="round" stroke-linejoin="round"/>
<path d="M47.137 94.5961C47.137 94.2377 46.8465 93.9472 46.4882 93.9472C46.1298 93.9472 45.8394 94.2377 45.8394 94.5961C45.8394 94.9544 46.1298 95.2449 46.4882 95.2449C46.8465 95.2449 47.137 94.9544 47.137 94.5961Z" fill="#050034" stroke="#DBE3FF" stroke-width="6" stroke-linecap="round" stroke-linejoin="round"/>
<path d="M51.9627 85.5026C51.9627 85.1442 51.6722 84.8537 51.3139 84.8537C50.9555 84.8537 50.665 85.1442 50.665 85.5026C50.665 85.8609 50.9555 86.1514 51.3139 86.1514C51.6722 86.1514 51.9627 85.8609 51.9627 85.5026Z" fill="#050034" stroke="#DBE3FF" stroke-width="6" stroke-linecap="round" stroke-linejoin="round"/>
<path d="M15.0354 77.9681C15.0354 77.4556 14.62 77.0402 14.1076 77.0402C13.5951 77.0402 13.1797 77.4556 13.1797 77.9681C13.1797 78.4805 13.5951 78.8959 14.1076 78.8959C14.62 78.8959 15.0354 78.4805 15.0354 77.9681Z" fill="#050034" stroke="#DBE3FF" stroke-width="6" stroke-linecap="round" stroke-linejoin="round"/>
</svg>
